<svg width="46" height="42" viewBox="0 0 46 42" fill="none" xmlns="http://www.w3.org/2000/svg">
<path d="M28.3163 14.0046C33.8393 23.5706 33.2763 34.2346 27.0583 37.8246C20.8403 41.4146 11.3233 36.5716 5.80033 27.0046C0.277328 17.4376 0.840328 6.77465 7.05833 3.18465C13.2763 -0.405352 22.7943 4.43865 28.3163 14.0046Z" stroke="url(#paint0_linear_220_125)" stroke-width="4" stroke-linecap="round" stroke-linejoin="round"/>
<path d="M17.0581 14.0046C11.5351 23.5706 12.0981 34.2346 18.3161 37.8246C24.5341 41.4146 34.0521 36.5706 39.5751 27.0046C45.0981 17.4386 44.5351 6.77465 38.3161 3.18465C32.1001 -0.405352 22.5811 4.43865 17.0581 14.0046Z" stroke="url(#paint1_linear_220_125)" stroke-width="4" stroke-linecap="round" stroke-linejoin="round"/>
<path d="M22.5532 6.84863C24.6982 8.75663 26.6822 11.1736 28.3162 14.0046C33.8392 23.5706 33.2762 34.2346 27.0582 37.8246C25.7602 38.5746 24.3182 38.9566 22.7982 39.0046" stroke="url(#paint2_linear_220_125)" stroke-width="4" stroke-linecap="round" stroke-linejoin="round"/>
<defs>
<linearGradient id="paint0_linear_220_125" x1="17.0583" y1="2" x2="17.0583" y2="39.0094" gradientUnits="userSpaceOnUse">
<stop stop-color="#C9471E"/>
<stop offset="1" stop-color="#F36F45"/>
</linearGradient>
<linearGradient id="paint1_linear_220_125" x1="28.3166" y1="2" x2="28.3166" y2="39.0093" gradientUnits="userSpaceOnUse">
<stop stop-color="#C9471E"/>
<stop offset="1" stop-color="#F36F45"/>
</linearGradient>
<linearGradient id="paint2_linear_220_125" x1="27.3349" y1="6.84863" x2="27.3349" y2="39.0046" gradientUnits="userSpaceOnUse">
<stop stop-color="#C9471E"/>
<stop offset="1" stop-color="#F36F45"/>
</linearGradient>
</defs>
</svg>
